<?xml version="1.0" encoding="UTF-8"?><svg id="Layer_2" xmlns="http://www.w3.org/2000/svg" viewBox="0 0 299.48 299.47"><defs><style>.cls-1{stroke-width:0px;}</style></defs><g id="Layer_1-2"><g id="pcFAke.tif"><path class="cls-1" d="m74.32,0c3.17,1.72,4.18,4.36,4.16,7.95-.12,22.6-.05,45.21-.07,67.81-.01,15.09-6.61,26.35-19.95,33.45-1.92,1.02-1.67,2.33-1.67,3.82,0,55.63,0,111.26-.03,166.9,0,2.03-.11,4.11-.55,6.08-1.91,8.38-9.85,14.08-18.44,13.37-8.62-.71-15.61-7.91-16.04-16.54-.06-1.17-.03-2.34-.03-3.51,0-55.34-.01-110.68.05-166.02,0-2.31-.65-3.48-2.75-4.67C6.77,101.79.25,91.22.11,77.22-.11,53.84.09,30.45,0,7.07-.01,3.71,1.43,1.58,4.14,0h3.51c3.17,1.72,4.18,4.36,4.16,7.95-.13,19.29-.06,38.59-.06,57.88,0,1.02,0,2.04,0,3.01h10.53v-3.31c0-19.2.07-38.4-.06-57.59-.03-3.6.98-6.23,4.16-7.95h3.51c3.17,1.72,4.18,4.36,4.16,7.95-.13,19.29-.06,38.59-.06,57.88,0,1.02,0,2.04,0,3.01h10.53c0-1.21,0-2.26,0-3.31,0-19.2.07-38.4-.06-57.59-.03-3.6.98-6.23,4.16-7.95h3.51c3.17,1.72,4.18,4.36,4.16,7.95-.13,19.29-.06,38.59-.06,57.88,0,1.02,0,2.04,0,3.01h10.53c0-1.2,0-2.26,0-3.31,0-19.2.07-38.4-.06-57.59-.03-3.6.98-6.23,4.16-7.95h3.51ZM11.99,80.81c1.93,9.26,6.92,15.49,15.31,18.91,5.49,2.23,6.08,2.96,6.08,8.77,0,57.01,0,114.02,0,171.03,0,5.37,1.93,8.12,5.74,8.19,3.92.07,5.95-2.76,5.95-8.28,0-57.01,0-114.02,0-171.03,0-5.67.65-6.55,5.89-8.59,6.6-2.57,11.3-7.14,13.96-13.72.66-1.63.97-3.41,1.49-5.29H11.99Z"/><path class="cls-1" d="m299.48,284.82c-.2.54-.44,1.07-.61,1.62-2.6,8.62-10.64,14.04-19.12,12.88-8.94-1.23-15.34-8.53-15.35-17.77-.04-27.66-.03-55.33.02-82.99,0-1.99-.46-3.45-1.95-4.85-3.34-3.13-6.56-6.39-9.7-9.72-5.39-5.69-8.21-12.53-8.23-20.34-.07-26.5-.72-53.01.16-79.48,1.2-35.89,17.47-63.94,47.17-84.17h7.6v284.82Zm-11.7-267.02c-1.74,1.59-3,2.64-4.14,3.81-17.89,18.1-27.17,39.9-27.39,65.33-.22,25.24-.04,50.48-.06,75.71,0,5.55,1.92,10.26,5.84,14.17,3.65,3.65,7.23,7.38,10.98,10.93,2.22,2.09,3.13,4.42,3.12,7.49-.08,28.06-.05,56.13-.05,84.19,0,1.07-.07,2.16.08,3.21.4,2.96,2.95,5.13,5.85,5.08,2.79-.04,5.24-2.12,5.66-4.96.17-1.15.1-2.33.1-3.5,0-85.85,0-171.69,0-257.54v-3.92Z"/><path class="cls-1" d="m149.77,66.67c45.82,0,83.13,37.37,83.04,83.19-.09,45.7-37.35,82.9-83.05,82.9-45.81,0-83.12-37.39-83.04-83.2.08-45.7,37.34-82.89,83.04-82.89Zm.02,154.39c39.34,0,71.38-32.11,71.33-71.45-.05-39.23-32-71.19-71.22-71.25-39.36-.06-71.44,31.95-71.47,71.29-.03,39.34,32.03,71.41,71.37,71.4Z"/><path class="cls-1" d="m150.89,261.5c-22.49-.18-42.21-5.7-60.2-17.03-1.66-1.04-3.46-3-3.73-4.76-.26-1.72.92-4.14,2.25-5.5,1.87-1.92,4.39-1.34,6.77-.15,6.95,3.48,13.72,7.49,20.99,10.09,38.86,13.89,82.94,1.63,109.33-30.02.69-.82,1.35-1.67,2.09-2.44,2.43-2.56,5.58-2.9,8.1-.9,2.58,2.05,3.2,5.68.8,8.3-5.11,5.6-10.11,11.42-15.88,16.29-20.66,17.44-44.75,25.86-70.51,26.12Z"/><path class="cls-1" d="m152.57,37.94c28.06.41,54.78,11.41,76.87,33.47,1.08,1.07,2.12,2.36,2.66,3.75.95,2.44-.26,5.23-2.45,6.6-2.3,1.44-5.12.98-7.48-1.1-4.83-4.23-9.39-8.84-14.6-12.55-19.97-14.23-42.32-20.04-66.75-18.01-12.48,1.03-24.25,4.47-35.47,9.93-3.84,1.87-7.2.99-8.79-2.21-1.58-3.19-.24-6.34,3.62-8.26,15.51-7.73,31.95-11.54,52.39-11.63Z"/><path class="cls-1" d="m75.06,230.59c-3.31-.04-6.09-2.92-5.98-6.21.1-3.13,2.75-5.66,5.88-5.63,3.3.03,6,2.89,5.92,6.25-.08,3.22-2.58,5.63-5.81,5.59Z"/><path class="cls-1" d="m95.96,147.78c1.8-21.71,12.07-37.71,31.98-47.15,3.49-1.65,6.76-.59,8.25,2.43,1.54,3.12.26,6.38-3.34,8.13-16.01,7.76-24.36,20.52-25.17,38.27-.17,3.7-2.72,6.22-6.06,6.08-3.68-.15-5.72-2.97-5.66-7.76Z"/><path class="cls-1" d="m143.75,101.81c0-3.32,2.61-5.89,5.96-5.85,3.19.04,5.8,2.57,5.88,5.7.09,3.27-2.53,5.92-5.87,5.97-3.39.04-5.97-2.46-5.97-5.81Z"/></g></g></svg>